<svg version="1.1" xmlns="http://www.w3.org/2000/svg" xmlns:xlink="http://www.w3.org/1999/xlink" width="24.3664" height="33.78396" viewBox="0,0,24.3664,33.78396"><g transform="translate(-227.8168,-163.10802)"><g data-paper-data="{&quot;isPaintingLayer&quot;:true}" fill-rule="nonzero" stroke="#000000" stroke-width="0.5" stroke-linejoin="miter" stroke-miterlimit="10" stroke-dasharray="" stroke-dashoffset="0" style="mix-blend-mode: normal"><g><path d="M228.0668,196.64198v-33.28396h23.8664v25.24311l-4.22565,4.51947l-3.29347,3.52136z" fill="#fafafa" stroke-linecap="butt"/><path d="M244.6215,196.17402l-0.43768,-7.2688l7.28769,0.02353z" fill="#a1a1a1" stroke-linecap="round"/><path d="M236.48283,168.95987l-2.215,2.41638l-2.28212,-2.34926l-2.34924,2.41636" fill="none" stroke-linecap="round"/><path d="M243.54029,171.5202l-2.34924,-2.41638l-2.28212,2.34926l-2.215,-2.41636" data-paper-data="{&quot;index&quot;:null}" fill="none" stroke-linecap="round"/><path d="M248.8526,168.97931l-2.28212,2.34926l-2.215,-2.41636" data-paper-data="{&quot;index&quot;:null}" fill="none" stroke-linecap="round"/><path d="M236.0801,173.72549l-2.215,2.41636l-2.28212,-2.34926l-2.34924,2.41636" fill="none" stroke-linecap="round"/><path d="M242.48581,173.82178l-2.28212,2.34926l-2.215,-2.41636" data-paper-data="{&quot;index&quot;:null}" fill="none" stroke-linecap="round"/><path d="M250.38667,173.80233l-2.21501,2.41638l-2.28212,-2.34926l-2.34924,2.41636" fill="none" stroke-linecap="round"/><path d="M236.49255,178.83642l-2.215,2.41636l-2.28212,-2.34924l-2.34924,2.41636" fill="none" stroke-linecap="round"/><path d="M243.55003,181.39675l-2.34924,-2.41636l-2.28212,2.34926l-2.215,-2.41636" data-paper-data="{&quot;index&quot;:null}" fill="none" stroke-linecap="round"/><path d="M248.86234,178.85587l-2.28212,2.34926l-2.215,-2.41638" data-paper-data="{&quot;index&quot;:null}" fill="none" stroke-linecap="round"/><path d="M236.0227,184.54174l-2.215,2.41636l-2.28212,-2.34926l-2.34924,2.41636" fill="none" stroke-linecap="round"/><path d="M242.42842,184.63803l-2.28212,2.34926l-2.215,-2.41636" data-paper-data="{&quot;index&quot;:null}" fill="none" stroke-linecap="round"/><path d="M250.32929,184.61859l-2.21501,2.41638l-2.28212,-2.34926l-2.34924,2.41636" fill="none" stroke-linecap="round"/><path d="M236.01298,190.5058l-2.21501,2.41638l-2.28212,-2.34926l-2.34924,2.41636" fill="none" stroke-linecap="round"/><path d="M242.29418,190.61183l-2.28212,2.34926l-2.215,-2.41636" data-paper-data="{&quot;index&quot;:null}" fill="none" stroke-linecap="round"/></g></g></g></svg>