<svg version="1.1" xmlns="http://www.w3.org/2000/svg" xmlns:xlink="http://www.w3.org/1999/xlink" width="54.94705" height="36.15492" viewBox="0,0,54.94705,36.15492"><g transform="translate(-212.52648,-161.92254)"><g data-paper-data="{&quot;isPaintingLayer&quot;:true}" fill-rule="nonzero" stroke="#000000" stroke-width="0" stroke-linecap="butt" stroke-linejoin="miter" stroke-miterlimit="10" stroke-dasharray="" stroke-dashoffset="0" style="mix-blend-mode: normal"><g fill="#000000"><path d="M213.33142,174.69911c-0.67605,-0.46223 -1.01192,-5.06341 0,-5.66061c0.82482,-0.48676 17.89912,-0.45041 18.96264,0c0.97429,0.41261 0.75166,5.20206 0,5.66061c-0.76571,0.46711 -18.37805,0.39969 -18.96264,0z"/><path d="M214.26059,196.39901c-1.83427,-2.3832 -2.74557,-26.10631 0,-29.18537c2.2379,-2.50972 48.56405,-2.32222 51.44961,0c2.64347,2.1274 2.03941,26.82117 0,29.18537c-2.07752,2.40837 -49.86351,2.06076 -51.44961,0z"/><path d="M213.08882,172.04346c-0.41581,2.10286 -0.33979,-8.63066 0.55239,-9.4626c0.74278,-0.69262 18.89231,-1.04535 19.33386,0c0.59355,1.4052 0,7.27893 0,7.27893c0,0 -19.77058,1.59864 -19.88625,2.18367z"/></g><g><path d="M215.03898,195.78208c-1.7788,-2.25915 -2.66254,-24.7474 0,-27.66618c2.17022,-2.37908 47.09542,-2.20134 49.89371,0c2.56353,2.01666 1.97774,25.42505 0,27.66618c-2.01469,2.283 -48.35558,1.95348 -49.89371,0z" fill="#f9c672"/><path d="M213.99519,172.38269c-0.38181,2.02701 -0.31201,-8.31935 0.50723,-9.12128c0.68205,-0.66764 17.34755,-1.00764 17.75299,0c0.54502,1.35451 0,7.01637 0,7.01637c0,0 -18.154,1.54097 -18.26022,2.10491z" fill="#b89255"/><path d="M214.24298,174.8381c-0.65561,-0.44556 -0.98132,-4.88077 0,-5.45642c0.79987,-0.46921 17.35782,-0.43416 18.38918,0c0.94483,0.39773 0.72893,5.01441 0,5.45642c-0.74255,0.45026 -17.82227,0.38527 -18.38918,0z" fill="#f9c672"/></g></g></g></svg>