<svg version="1.1" xmlns="http://www.w3.org/2000/svg" xmlns:xlink="http://www.w3.org/1999/xlink" width="42.38031" height="33.82944" viewBox="0,0,42.38031,33.82944"><g transform="translate(-218.80984,-162.57667)"><g data-paper-data="{&quot;isPaintingLayer&quot;:true}" fill-rule="nonzero" stroke-linejoin="miter" stroke-miterlimit="10" stroke-dasharray="" stroke-dashoffset="0" style="mix-blend-mode: normal"><g data-paper-data="{&quot;index&quot;:null}"><path d="M220.53578,176.6475c-1.10171,0.05436 -1.35934,-5.29791 -0.85391,-5.67074c0.75458,-0.55661 38.38933,-8.2481 39.36222,-8.14915c1.20583,0.12266 1.84719,5.27181 0.85391,5.67074c-0.85676,0.34411 -37.10003,8.03754 -39.36222,8.14915z" fill="#2f2f2f" stroke="#000000" stroke-width="0.5" stroke-linecap="butt"/><path d="M254.95978,168.55758l1.16253,-4.11426" fill="none" stroke="#ffffff" stroke-width="1.5" stroke-linecap="round"/><path d="M251.07424,165.48358l-1.16253,4.11426" fill="none" stroke="#ffffff" stroke-width="1.5" stroke-linecap="round"/><path d="M246.16802,166.49421l-1.17412,4.32853" fill="none" stroke="#ffffff" stroke-width="1.5" stroke-linecap="round"/><path d="M241.3947,167.47861l-1.17412,4.32853" fill="none" stroke="#ffffff" stroke-width="1.5" stroke-linecap="round"/><path d="M236.34662,168.51885l-1.17412,4.32853" fill="none" stroke="#ffffff" stroke-width="1.5" stroke-linecap="round"/><path d="M231.4817,169.52186l-1.20981,4.14102" fill="none" stroke="#ffffff" stroke-width="1.5" stroke-linecap="round"/><path d="M226.35471,170.65681l-1.20979,4.14102" fill="none" stroke="#ffffff" stroke-width="1.5" stroke-linecap="round"/><path d="M220.4007,176.50822c-1.11547,0.06059 -1.52653,-5.02581 -1.02455,-5.38437c0.74946,-0.53527 38.69057,-8.15195 39.67968,-8.06574c1.22599,0.10685 2.02041,4.99705 1.02455,5.38437c-0.85898,0.33407 -37.38925,7.94134 -39.67968,8.06574z" fill="none" stroke="#000000" stroke-width="0.5" stroke-linecap="butt"/></g><path d="M219.69975,195.52029c-1.10482,-0.54578 -0.55899,-17.528 0,-18.37056c0.83455,-1.2579 39.44967,-0.94362 40.40324,0c1.18193,1.16959 1.04851,17.76329 0,18.37056c-0.90439,0.52381 -38.13469,1.1207 -40.40324,0z" data-paper-data="{&quot;index&quot;:null}" fill="#2f2f2f" stroke="#000000" stroke-width="0.5" stroke-linecap="butt"/><path d="M254.77131,180.95692l1.92838,-3.85677" data-paper-data="{&quot;index&quot;:null}" fill="none" stroke="#ffffff" stroke-width="1.5" stroke-linecap="round"/><path d="M251.63586,177.11346l-1.92838,3.85677" data-paper-data="{&quot;index&quot;:null}" fill="none" stroke="#ffffff" stroke-width="1.5" stroke-linecap="round"/><path d="M246.66385,177.32589l-1.92838,3.64219" data-paper-data="{&quot;index&quot;:null}" fill="none" stroke="#ffffff" stroke-width="1.5" stroke-linecap="round"/><path d="M239.94712,180.98139l1.92838,-3.64219" data-paper-data="{&quot;index&quot;:null}" fill="none" stroke="#ffffff" stroke-width="1.5" stroke-linecap="round"/><path d="M234.88329,180.99469l1.92838,-3.64219" data-paper-data="{&quot;index&quot;:null}" fill="none" stroke="#ffffff" stroke-width="1.5" stroke-linecap="round"/><path d="M230.00309,181.03893l1.92838,-3.67311" data-paper-data="{&quot;index&quot;:null}" fill="none" stroke="#ffffff" stroke-width="1.5" stroke-linecap="round"/><path d="M219.95211,181.82994c-1.08785,-0.15669 -0.5504,-5.03202 0,-5.27389c0.82175,-0.36111 38.84419,-0.2709 39.78313,0c1.16378,0.33578 1.03242,5.09957 0,5.27389c-0.89051,0.15036 -37.54939,0.32175 -39.78313,0z" data-paper-data="{&quot;index&quot;:null}" fill="none" stroke="#000000" stroke-width="0.5" stroke-linecap="butt"/><g data-paper-data="{&quot;index&quot;:null}"><path d="M228.88714,180.36174c0,0.83936 -0.47928,1.5198 -1.0705,1.5198c-0.59122,0 -1.0705,-0.68044 -1.0705,-1.5198c0,-0.83936 0.47928,-1.51978 1.0705,-1.51978c0.59122,0 1.0705,0.68042 1.0705,1.51978z" fill="none" stroke="#000000" stroke-width="0.5" stroke-linecap="butt"/><path d="M226.64381,177.07935c0.57759,0.6629 1.18673,1.4412 1.59855,2.2344c0.04394,0.05657 0.08286,0.11556 0.11656,0.17666c-0.17091,0.03069 -0.36301,0.14939 -0.58496,0.38175c-0.59763,0.62571 -0.88446,1.10187 -0.96248,1.45522c-1.4335,0.33691 -3.18871,0.08357 -4.74048,0.04c-0.46853,0.07793 -0.92455,0.11799 -1.38367,0.04557c-0.11072,0.01343 -0.21903,0.02988 -0.32468,0.04974l-0.01968,-0.12609c-0.00173,-0.00049 -0.00346,-0.001 -0.00518,-0.00149v0.12876h-0.3985c-0.19359,0 -0.35053,-0.20956 -0.35053,-0.46806c0,-0.21971 0.11338,-0.40407 0.26628,-0.45445c-0.08301,-0.14426 -0.15433,-0.34569 -0.20482,-0.61083c-0.26257,-1.37897 0.09063,-3.4853 0.2579,-5.24167c-0.08987,-0.08475 -0.14856,-0.22452 -0.14856,-0.38261v-0.53211h0.11028c-0.00011,-0.00095 -0.0002,-0.00191 -0.00031,-0.00286l-0.10909,-0.03035c0.01711,-0.15173 0.05256,-0.29777 0.10116,-0.43791c0.00719,-0.08498 0.01941,-0.16518 0.0363,-0.24067l-0.04442,-0.02965l0.16739,-0.44705c0.0562,-0.15832 0.17698,-0.2678 0.31692,-0.2678c0.01028,0 0.02046,0.00059 0.03051,0.00175c0.70998,-0.50941 2.00675,-0.24173 2.92652,0.43525c0.92958,0.68417 1.66705,2.22172 2.40983,3.26414c0.41504,0.38098 0.71461,0.67199 0.80409,0.77229c0.03792,0.06306 0.08432,0.16193 0.13505,0.28808zM227.14836,178.96548c0.00177,0.01144 0.00352,0.02287 0.00524,0.03429c0.00235,-0.0057 0.00475,-0.01128 0.00719,-0.01672c-0.00414,-0.00585 -0.00828,-0.01173 -0.01243,-0.01757zM220.67703,180.46336c-0.00063,0.00126 -0.00126,0.00252 -0.00189,0.00377c0.0023,-0.00035 0.00462,-0.00071 0.00692,-0.00109c-0.00168,-0.00089 -0.00335,-0.00178 -0.00503,-0.00269z" fill="#2f2f2f" stroke="none" stroke-width="0.5" stroke-linecap="butt"/><path d="M219.64403,172.28188h3.32344" fill="none" stroke="#000000" stroke-width="0.5" stroke-linecap="round"/><path d="M226.47124,180.4852l0.24307,0.00637c0.25916,-0.05736 0.52057,-0.09826 0.78248,-0.12544c0,0 0.34949,-0.0359 0.37638,0.43078c0.02688,0.46668 -0.32261,0.50258 -0.32261,0.50258c-0.24136,0.0245 -0.48226,0.06202 -0.721,0.11547l-0.35832,0.00637c0,0 -0.35053,0 -0.35053,-0.46806c0,-0.46806 0.35053,-0.46806 0.35053,-0.46806z" fill="#2f2f2f" stroke="none" stroke-width="0.5" stroke-linecap="butt"/><path d="M219.60672,172.29483v9.4889" fill="none" stroke="#000000" stroke-width="0.5" stroke-linecap="round"/><path d="M227.5858,181.80312h-7.96387" fill="none" stroke="#000000" stroke-width="0.5" stroke-linecap="round"/><path d="M223.01132,172.27542l5.63691,7.16191" fill="none" stroke="#000000" stroke-width="0.5" stroke-linecap="round"/><path d="M228.58242,180.38762c0,0.60651 -0.34634,1.0982 -0.77354,1.0982c-0.42721,0 -0.77356,-0.49169 -0.77356,-1.0982c0,-0.60651 0.34634,-1.0982 0.77356,-1.0982c0.42721,0 0.77354,0.49169 0.77354,1.0982z" fill="#2f2f2f" stroke="#000000" stroke-width="0" stroke-linecap="butt"/><path d="M220.6077,173.95306c-0.19359,0 -0.35053,-0.20956 -0.35053,-0.46806c0,-0.2585 0.15694,-0.46806 0.35053,-0.46806c0.19359,0 0.35053,0.20956 0.35053,0.46806c0,0.2585 -0.15694,0.46806 -0.35053,0.46806z" fill="#ffffff" stroke="none" stroke-width="0.5" stroke-linecap="butt"/><path d="M227.70407,180.73872c-0.19359,0 -0.35053,-0.20956 -0.35053,-0.46806c0,-0.2585 0.15694,-0.46806 0.35053,-0.46806c0.19359,0 0.35053,0.20956 0.35053,0.46806c0,0.2585 -0.15694,0.46806 -0.35053,0.46806z" fill="#ffffff" stroke="none" stroke-width="0.5" stroke-linecap="butt"/><path d="M220.6077,180.49781c-0.19359,0 -0.35053,-0.20956 -0.35053,-0.46806c0,-0.2585 0.15694,-0.46806 0.35053,-0.46806c0.19359,0 0.35053,0.20956 0.35053,0.46806c0,0.2585 -0.15694,0.46806 -0.35053,0.46806z" fill="#ffffff" stroke="none" stroke-width="0.5" stroke-linecap="butt"/></g><text transform="translate(222.05832,193.28553) scale(0.32398,0.32398)" font-size="40" xml:space="preserve" fill="#ffffff" fill-rule="nonzero" stroke="none" stroke-width="1" stroke-linecap="butt" stroke-linejoin="miter" stroke-miterlimit="10" stroke-dasharray="" stroke-dashoffset="0" font-family="Marker" font-weight="normal" text-anchor="start" style="mix-blend-mode: normal"><tspan x="0" dy="0">Scene</tspan></text></g></g></svg>